<mxfile host="Electron" modified="2024-02-04T20:39:36.638Z" agent="Mozilla/5.0 (Windows NT 10.0; Win64; x64) AppleWebKit/537.36 (KHTML, like Gecko) draw.io/23.0.2 Chrome/120.0.6099.109 Electron/28.1.0 Safari/537.36" etag="BnvPa3VQs3NUrNEJ3Uki" version="23.0.2" type="device">
  <diagram name="Page-1" id="vmFGogkijurHNXbTmT7A">
    <mxGraphModel dx="1607" dy="496" grid="1" gridSize="10" guides="1" tooltips="1" connect="1" arrows="1" fold="1" page="1" pageScale="1" pageWidth="827" pageHeight="1169" math="0" shadow="0">
      <root>
        <mxCell id="0" />
        <mxCell id="1" parent="0" />
        <UserObject label="OlderPerson" type="externalEntity" source="" flow="" placeholders="1" id="VXVsZNZv_-hck1XxW4xf-1">
          <mxCell style="shape=rectangle;whiteSpace=wrap;html=1;fillColor=#ffffff;strokeColor=#000000;align=center;verticalAlign=middle;fontColor=#232F3E;" vertex="1" parent="1">
            <mxGeometry x="155" width="95" height="35" as="geometry" />
          </mxCell>
        </UserObject>
        <UserObject label="Fall Detection" type="process" source="1" flow="Sensor Data" placeholders="1" id="VXVsZNZv_-hck1XxW4xf-2">
          <mxCell style="shape=ellipse;perimeter=ellipsePerimeter;whiteSpace=wrap;html=1;fillColor=#ffffff;strokeColor=#000000;align=center;verticalAlign=middle;fontColor=#232F3E;" vertex="1" parent="1">
            <mxGeometry y="135" width="105" height="35" as="geometry" />
          </mxCell>
        </UserObject>
        <UserObject label="Emergency Alert" type="process" source="2" flow="Contact Information" placeholders="1" id="VXVsZNZv_-hck1XxW4xf-3">
          <mxCell style="shape=ellipse;perimeter=ellipsePerimeter;whiteSpace=wrap;html=1;fillColor=#ffffff;strokeColor=#000000;align=center;verticalAlign=middle;fontColor=#232F3E;" vertex="1" parent="1">
            <mxGeometry x="-5" y="270" width="115" height="35" as="geometry" />
          </mxCell>
        </UserObject>
        <UserObject label="Medicine Reminder" type="process" source="1" flow="Medicine Schedule" placeholders="1" id="VXVsZNZv_-hck1XxW4xf-4">
          <mxCell style="shape=ellipse;perimeter=ellipsePerimeter;whiteSpace=wrap;html=1;fillColor=#ffffff;strokeColor=#000000;align=center;verticalAlign=middle;fontColor=#232F3E;" vertex="1" parent="1">
            <mxGeometry x="135" y="135" width="135" height="35" as="geometry" />
          </mxCell>
        </UserObject>
        <UserObject label="Patient Information" type="dataStore" source="4" flow="Medical Caregiver" placeholders="1" id="VXVsZNZv_-hck1XxW4xf-5">
          <mxCell style="html=1;dashed=0;whiteSpace=wrap;shape=partialRectangle;right=0;left=0;" vertex="1" parent="1">
            <mxGeometry x="140" y="270" width="125" height="35" as="geometry" />
          </mxCell>
        </UserObject>
        <UserObject label="Healthy Recipes" type="process" source="1" flow="Recipe Database" placeholders="1" id="VXVsZNZv_-hck1XxW4xf-6">
          <mxCell style="shape=ellipse;perimeter=ellipsePerimeter;whiteSpace=wrap;html=1;fillColor=#ffffff;strokeColor=#000000;align=center;verticalAlign=middle;fontColor=#232F3E;" vertex="1" parent="1">
            <mxGeometry x="300" y="135" width="115" height="35" as="geometry" />
          </mxCell>
        </UserObject>
        <UserObject label="User Location" type="dataStore" source="6" flow="Medical Caregiver" placeholders="1" id="VXVsZNZv_-hck1XxW4xf-7">
          <mxCell style="html=1;dashed=0;whiteSpace=wrap;shape=partialRectangle;right=0;left=0;" vertex="1" parent="1">
            <mxGeometry x="305" y="270" width="105" height="35" as="geometry" />
          </mxCell>
        </UserObject>
        <UserObject label="ALFRED User" type="externalEntity" source=",7" placeholders="1" id="VXVsZNZv_-hck1XxW4xf-8">
          <mxCell style="shape=rectangle;whiteSpace=wrap;html=1;fillColor=#ffffff;strokeColor=#000000;align=center;verticalAlign=middle;fontColor=#232F3E;" vertex="1" parent="1">
            <mxGeometry x="305" y="405" width="105" height="35" as="geometry" />
          </mxCell>
        </UserObject>
        <mxCell id="VXVsZNZv_-hck1XxW4xf-9" value="Sensor Data" style="endArrow=blockThin;endFill=1;fontSize=11;orthogonal=1;noEdgeStyle=1;" edge="1" parent="1" source="VXVsZNZv_-hck1XxW4xf-1" target="VXVsZNZv_-hck1XxW4xf-2">
          <mxGeometry relative="1" as="geometry">
            <Array as="points">
              <mxPoint x="174.16666666666666" y="47" />
              <mxPoint x="52.5" y="123" />
            </Array>
          </mxGeometry>
        </mxCell>
        <mxCell id="VXVsZNZv_-hck1XxW4xf-10" value="Contact Information" style="endArrow=blockThin;endFill=1;fontSize=11;orthogonal=1;noEdgeStyle=1;" edge="1" parent="1" source="VXVsZNZv_-hck1XxW4xf-2" target="VXVsZNZv_-hck1XxW4xf-3">
          <mxGeometry relative="1" as="geometry">
            <Array as="points">
              <mxPoint x="52.5" y="182" />
              <mxPoint x="52.5" y="258" />
            </Array>
          </mxGeometry>
        </mxCell>
        <mxCell id="VXVsZNZv_-hck1XxW4xf-11" value="Medicine Schedule" style="endArrow=blockThin;endFill=1;fontSize=11;orthogonal=1;noEdgeStyle=1;" edge="1" parent="1" source="VXVsZNZv_-hck1XxW4xf-1" target="VXVsZNZv_-hck1XxW4xf-4">
          <mxGeometry relative="1" as="geometry">
            <Array as="points">
              <mxPoint x="202.5" y="49" />
              <mxPoint x="202.5" y="123" />
            </Array>
          </mxGeometry>
        </mxCell>
        <mxCell id="VXVsZNZv_-hck1XxW4xf-12" value="Medical Caregiver" style="endArrow=blockThin;endFill=1;fontSize=11;orthogonal=1;noEdgeStyle=1;" edge="1" parent="1" source="VXVsZNZv_-hck1XxW4xf-4" target="VXVsZNZv_-hck1XxW4xf-5">
          <mxGeometry relative="1" as="geometry">
            <Array as="points">
              <mxPoint x="202.5" y="182" />
              <mxPoint x="202.5" y="258" />
            </Array>
          </mxGeometry>
        </mxCell>
        <mxCell id="VXVsZNZv_-hck1XxW4xf-13" value="Recipe Database" style="endArrow=blockThin;endFill=1;fontSize=11;orthogonal=1;noEdgeStyle=1;" edge="1" parent="1" source="VXVsZNZv_-hck1XxW4xf-1" target="VXVsZNZv_-hck1XxW4xf-6">
          <mxGeometry relative="1" as="geometry">
            <Array as="points">
              <mxPoint x="230.83333333333334" y="47" />
              <mxPoint x="357.5" y="123" />
            </Array>
          </mxGeometry>
        </mxCell>
        <mxCell id="VXVsZNZv_-hck1XxW4xf-14" value="Medical Caregiver" style="endArrow=blockThin;endFill=1;fontSize=11;orthogonal=1;noEdgeStyle=1;" edge="1" parent="1" source="VXVsZNZv_-hck1XxW4xf-6" target="VXVsZNZv_-hck1XxW4xf-7">
          <mxGeometry relative="1" as="geometry">
            <Array as="points">
              <mxPoint x="357.5" y="182" />
              <mxPoint x="357.5" y="258" />
            </Array>
          </mxGeometry>
        </mxCell>
        <mxCell id="VXVsZNZv_-hck1XxW4xf-15" value="" style="endArrow=blockThin;endFill=1;fontSize=11;orthogonal=1;noEdgeStyle=1;" edge="1" parent="1" source="VXVsZNZv_-hck1XxW4xf-7" target="VXVsZNZv_-hck1XxW4xf-8">
          <mxGeometry relative="1" as="geometry">
            <Array as="points">
              <mxPoint x="357.5" y="317" />
              <mxPoint x="357.5" y="393" />
            </Array>
          </mxGeometry>
        </mxCell>
      </root>
    </mxGraphModel>
  </diagram>
</mxfile>
